<svg id="visual" viewBox="0 0 600 900" width="600" height="900" xmlns="http://www.w3.org/2000/svg" xmlns:xlink="http://www.w3.org/1999/xlink" version="1.1"><rect x="0" y="0" width="600" height="900" fill="#ffffff"></rect><defs><linearGradient id="grad1_0" x1="0%" y1="0%" x2="100%" y2="100%"><stop offset="30%" stop-color="#ffffff" stop-opacity="1"></stop><stop offset="70%" stop-color="#ffffff" stop-opacity="1"></stop></linearGradient></defs><defs><linearGradient id="grad2_0" x1="0%" y1="0%" x2="100%" y2="100%"><stop offset="30%" stop-color="#ffffff" stop-opacity="1"></stop><stop offset="70%" stop-color="#ffffff" stop-opacity="1"></stop></linearGradient></defs><g transform="translate(600, 0)"><path d="M0 324.5C-23.3 289.7 -46.7 254.8 -61.6 229.9C-76.5 204.9 -83 189.8 -114 197.5C-145 205.1 -200.4 235.4 -229.5 229.5C-258.5 223.5 -261.2 181.4 -256.3 148C-251.5 114.6 -239.1 90 -249.2 66.8C-259.3 43.6 -291.9 21.8 -324.5 0L0 0Z" fill="#A52A2A"></path></g><g transform="translate(0, 900)"><path d="M0 -324.5C33.1 -330.6 66.2 -336.7 84 -313.4C101.7 -290.2 104.1 -237.7 127.5 -220.8C150.9 -204 195.2 -222.7 209.3 -209.3C223.4 -195.9 207.3 -150.4 215.6 -124.5C224 -98.6 256.9 -92.3 279.2 -74.8C301.4 -57.3 312.9 -28.7 324.5 0L0 0Z" fill="#A52A2A"></path></g></svg>