<svg id="visual" viewBox="0 0 900 450" width="900" height="450" xmlns="http://www.w3.org/2000/svg" xmlns:xlink="http://www.w3.org/1999/xlink" version="1.1"><rect x="0" y="0" width="900" height="450" fill="#ffffff"></rect><defs><linearGradient id="grad1_0" x1="50%" y1="0%" x2="100%" y2="100%"><stop offset="10%" stop-color="#ffffff" stop-opacity="1"></stop><stop offset="90%" stop-color="#ffffff" stop-opacity="1"></stop></linearGradient></defs><defs><linearGradient id="grad2_0" x1="0%" y1="0%" x2="50%" y2="100%"><stop offset="10%" stop-color="#ffffff" stop-opacity="1"></stop><stop offset="90%" stop-color="#ffffff" stop-opacity="1"></stop></linearGradient></defs><g transform="translate(900, 0)"><path d="M0 270C-31.1 282.2 -62.1 294.4 -69.9 260.8C-77.7 227.2 -62.1 147.8 -74 128.2C-85.9 108.5 -125.1 148.6 -159.1 159.1C-193.1 169.6 -222 150.5 -217.4 125.5C-212.7 100.5 -174.5 69.5 -177.7 47.6C-180.9 25.7 -225.5 12.9 -270 0L0 0Z" fill="#2F3C7E"></path></g><g transform="translate(0, 450)"><path d="M0 -270C10.6 -216.6 21.1 -163.1 43.2 -161.3C65.3 -159.5 98.9 -209.2 130 -225.2C161.1 -241.1 189.7 -223.2 190.9 -190.9C192.1 -158.7 165.9 -112.1 145.5 -84C125.1 -55.9 110.6 -46.4 132.3 -35.5C154.1 -24.5 212 -12.3 270 0L0 0Z" fill="#2F3C7E"></path></g></svg>